<svg width="18" height="18" viewBox="0 0 18 18" fill="none" xmlns="http://www.w3.org/2000/svg">
<g id="SCAN QR ICON">
<g id="Group">
<path id="Vector" d="M15.2015 0H12.8159C12.54 0 12.3167 0.226231 12.3167 0.504861C12.3167 0.783908 12.5404 1.00972 12.8159 1.00972H15.2015C15.6667 1.00972 16.045 1.39232 16.045 1.86267V4.27511C16.045 4.55415 16.2687 4.77997 16.5443 4.77997C16.8198 4.77997 17.0435 4.55374 17.0435 4.27511V1.86267C17.0439 0.835476 16.2173 0 15.2015 0Z" fill="white"/>
</g>
<g id="Group_2">
<path id="Vector_2" d="M0.499663 4.77997C0.775609 4.77997 0.998915 4.55374 0.998915 4.27511V1.86267C0.998915 1.39232 1.37726 1.00972 1.84238 1.00972H4.22802C4.50396 1.00972 4.72727 0.783492 4.72727 0.504861C4.72727 0.225815 4.50355 0 4.22802 0H1.84238C0.826603 0 0 0.835891 0 1.86308V4.27552C0.000411246 4.55374 0.223717 4.77997 0.499663 4.77997Z" fill="white"/>
</g>
<g id="Group_3">
<path id="Vector_3" d="M4.22809 16.2253H1.84246C1.37734 16.2253 0.998993 15.8427 0.998993 15.3724V12.9599C0.998993 12.6809 0.775276 12.4551 0.499741 12.4551C0.224207 12.4551 0.000488281 12.6813 0.000488281 12.9599V15.3724C0.000488281 16.3996 0.827093 17.2355 1.84287 17.2355H4.2285C4.50445 17.2355 4.72776 17.0092 4.72776 16.7306C4.72776 16.452 4.50363 16.2253 4.22809 16.2253Z" fill="white"/>
</g>
<g id="Group_4">
<path id="Vector_4" d="M16.5447 12.4551C16.2688 12.4551 16.0455 12.6813 16.0455 12.9599V15.3724C16.0455 15.8427 15.6671 16.2253 15.202 16.2253H12.8164C12.5404 16.2253 12.3171 16.4516 12.3171 16.7302C12.3171 17.0088 12.5409 17.235 12.8164 17.235H15.202C16.2178 17.235 17.0444 16.3992 17.0444 15.372V12.9595C17.044 12.6809 16.8203 12.4551 16.5447 12.4551Z" fill="white"/>
</g>
<g id="Group_5">
<path id="Vector_5" d="M11.373 3.70308H12.9567C13.1731 3.70308 13.3491 3.88107 13.3491 4.09982V5.70132C13.3491 5.98037 13.5728 6.20619 13.8483 6.20619C14.1243 6.20619 14.3476 5.97995 14.3476 5.70132V4.09982C14.3476 3.32423 13.7237 2.69336 12.9567 2.69336H11.373C11.0971 2.69336 10.8738 2.91959 10.8738 3.19822C10.8738 3.47685 11.0975 3.70308 11.373 3.70308Z" fill="white"/>
</g>
<g id="Group_6">
<path id="Vector_6" d="M2.69678 4.09982V5.70132C2.69678 5.98037 2.9205 6.20619 3.19603 6.20619C3.47198 6.20619 3.69528 5.97995 3.69528 5.70132V4.09982C3.69528 3.88107 3.8713 3.70308 4.08761 3.70308H5.67132C5.94726 3.70308 6.17057 3.47685 6.17057 3.19822C6.17057 2.91917 5.94685 2.69336 5.67132 2.69336H4.08761C3.32105 2.69294 2.69678 3.32423 2.69678 4.09982Z" fill="white"/>
</g>
<g id="Group_7">
<path id="Vector_7" d="M5.67132 13.465H4.08761C3.8713 13.465 3.69528 13.287 3.69528 13.0683V11.4668C3.69528 11.1877 3.47156 10.9619 3.19603 10.9619C2.92008 10.9619 2.69678 11.1881 2.69678 11.4668V13.0683C2.69678 13.8439 3.32064 14.4747 4.08761 14.4747H5.67132C5.94726 14.4747 6.17057 14.2485 6.17057 13.9699C6.17057 13.6912 5.94726 13.465 5.67132 13.465Z" fill="white"/>
</g>
<g id="Group_8">
<path id="Vector_8" d="M14.3476 13.0683V11.4668C14.3476 11.1877 14.1239 10.9619 13.8483 10.9619C13.5728 10.9619 13.3491 11.1881 13.3491 11.4668V13.0683C13.3491 13.287 13.1731 13.465 12.9567 13.465H11.373C11.0971 13.465 10.8738 13.6912 10.8738 13.9699C10.8738 14.2485 11.0975 14.4747 11.373 14.4747H12.9567C13.7237 14.4752 14.3476 13.8439 14.3476 13.0683Z" fill="white"/>
</g>
<g id="Group_9">
<path id="Vector_9" d="M0 8.54832C0 8.82737 0.223718 9.05318 0.499253 9.05318H16.4778C16.7537 9.05318 16.977 8.82695 16.977 8.54832C16.977 8.26927 16.7533 8.04346 16.4778 8.04346H0.499253C0.223307 8.04346 0 8.26927 0 8.54832Z" fill="white"/>
</g>
</g>
</svg>
